# xmcd CD database file
#
# Track frame offsets:
#	150
#	12356
#	23435
#	36221
#	47824
#	60328
#	75086
#	91377
#	104327
#	113299
#	124508
#	134926
#	146323
#	157808
#	169356
#	179830
#	193462
#	207398
#	218809
#	233990
#
# Disc length: 3284 seconds
#
# Revision: 3
# Processed by: cddbd v1.5.2PL0 Copyright (c) Steve Scherf et al.
# Submitted via: CDex 1.70beta2
#
DISCID=100cd214
DTITLE=B. B. King - The Ultimate Jazz Archive Set 16
DYEAR=1900
DGENRE=Blues
TTITLE0=B. B. King - Miss Martha King
TTITLE1=B. B. King - When You Baby Packs Up and Goes
TTITLE2=B. B. King - Got the Blues
TTITLE3=B. B. King - Take A Swing With Me
TTITLE4=B. B. King - Mistreated Woman
TTITLE5=B. B. King - B. B. Boogie
TTITLE6=B. B. King - The Other Night Blues
TTITLE7=B. B. King - Walkin' and Cryin'
TTITLE8=B. B. King - My Baby is Gone
TTITLE9=B. B. King - B. B. Blues
TTITLE10=B. B. King - Fine Looking Woman
TTITLE11=B. B. King - She's Dynamite
TTITLE12=B. B. King - She's A Mean Woman
TTITLE13=B. B. King - Hard Working Woman
TTITLE14=B. B. King - That Ain't the Way to Do It
TTITLE15=B. B. King - Three O'Clock Blues
TTITLE16=B.B. King - She Don't Move Me No More
TTITLE17=B. B. King/ Shake it Up and Go
TTITLE18=B. B. King/ My Own Fault Darlin'
TTITLE19=B. B. King/ I Gotta Find my Baby
EXTD=
EXTT0=
EXTT1=
EXTT2=
EXTT3=
EXTT4=
EXTT5=
EXTT6=
EXTT7=
EXTT8=
EXTT9=
EXTT10=
EXTT11=
EXTT12=
EXTT13=
EXTT14=
EXTT15=
EXTT16=
EXTT17=
EXTT18=
EXTT19=
PLAYORDER=
